{"title":"The Brazen Bull (2010) DvdRip [Xvid] {1337x}-X.avi","uid":5940498,"size":733730816,"categoryP":"video","categoryS":"movies","magnet":"?xt=urn:btih:1b3e29a71a725878a1ce32ba9965631b588b949f&amp;dn=The+Brazen+Bull+%282010%29+DvdRip+%5BXvid%5D+%7B1337x%7D-X.avi&amp;tr=udp%3A%2F%2Ftracker.openbittorrent.com%3A80&amp;tr=udp%3A%2F%2Fopen.demonii.com%3A1337&amp;tr=udp%3A%2F%2Ftracker.coppersurfer.tk%3A6969&amp;tr=udp%3A%2F%2Fexodus.desync.com%3A6969","seeders":0,"leechers":1,"uploader":"hiest","files":-1,"time":1289154402,"description":"Video\n\nCodec ID/Hint : XviD\nDuration : 1h 23mn\nBit rate : 1 049 Kbps\nWidth : 720 pixels\nHeight : 304 pixels\nDisplay aspect ratio : 2.35:1\nFrame rate : 23.976 fps\nColor space : YUV\nChroma subsampling : 4:2:0\nBit depth : 8 bits\nScan type : Progressive\nBits/(Pixel*Frame) : 0.200\nStream size : 630 MiB (90%)\nWriting library : XviD 57\n\n\nMode extension : MS Stereo\nCodec ID : 55\nCodec ID/Hint : MP3\nDuration : 1h 23mn\nBit rate mode : Variable\nBit rate : 104 Kbps\nNominal bit rate : 112 Kbps\nChannel(s) : 2 channels\nSampling rate : 48.0 KHz\nStream size : 62.2 MiB (9%)\nAlignment : Aligned on interleaves\nInterleave, duration : 24 ms (0.58 video frame)\nInterleave, preload duration : 555 ms\nWriting library : LAME3.97 \nEncoding settings : -m j -V 4 -q 2 -lowpass 16 --abr 112\n\n\nIMDB &lt;a href=&quot;\nhttp://www.imdb.com/title/tt1415284/&quot; rel=&quot;nofollow&quot; target=&quot;_NEW&quot;&gt;\nhttp://www.imdb.com/title/tt1415284/&lt;/a&gt;\n\n\n\nPlot:\n\nAn ice cold tale of misguided ambition and savage revenge. Set in the bowels of an iconic derelict Los Angeles high-rise, we follow Lauren and her real-estate investing fiancÃƒÂ© as they discover first hand what happens when a madman leads not with emotion, but rather chilling rationality. The Man in question brings a heaping helping of sanity and jet-black humor to the crazy table. The result is a wonderfully off-kilter horror/thriller that never goes where we expect, but rather draws the audience deeper into a surprising world that has dark corners even in the brightest rooms.\n\n\n\n\n\n\n================================== &lt;a href=&quot;\nhttp://thepiratebay.se/user/hiest&quot; rel=&quot;nofollow&quot; target=&quot;_NEW&quot;&gt;\nhttp://thepiratebay.se/user/hiest&lt;/a&gt;\n==================================\n\n\n\n\n\n\nScreens:\n &lt;a href=&quot;\nhttp://leetleech.org/images/64613023275151500149.jpg&quot; rel=&quot;nofollow&quot; target=&quot;_NEW&quot;&gt;\nhttp://leetleech.org/images/64613023275151500149.jpg&lt;/a&gt;","torrent":{"xt":"urn:btih:1b3e29a71a725878a1ce32ba9965631b588b949f","amp;dn":"The+Brazen+Bull+%282010%29+DvdRip+%5BXvid%5D+%7B1337x%7D-X.avi","amp;tr":["udp%3A%2F%2Ftracker.openbittorrent.com%3A80","udp%3A%2F%2Fopen.demonii.com%3A1337","udp%3A%2F%2Ftracker.coppersurfer.tk%3A6969","udp%3A%2F%2Fexodus.desync.com%3A6969"],"infoHash":"1b3e29a71a725878a1ce32ba9965631b588b949f","infoHashBuffer":{"type":"Buffer","data":[27,62,41,167,26,114,88,120,161,206,50,186,153,101,99,27,88,139,148,159]},"announce":[],"urlList":[]}}